<mxfile host="app.diagrams.net" agent="Mozilla/5.0 (Windows NT 10.0; Win64; x64) AppleWebKit/537.36 (KHTML, like Gecko) Chrome/135.0.0.0 Safari/537.36" version="26.2.9">
  <diagram name="Page-1" id="9361dd3d-8414-5efd-6122-117bd74ce7a7">
    <mxGraphModel dx="2003" dy="1234" grid="1" gridSize="10" guides="1" tooltips="1" connect="1" arrows="1" fold="1" page="0" pageScale="1.5" pageWidth="826" pageHeight="1169" background="none" math="0" shadow="0">
      <root>
        <mxCell id="0" />
        <mxCell id="1" parent="0" />
        <mxCell id="20" value="" style="fillColor=#CCD5EB" parent="1" vertex="1">
          <mxGeometry x="-40" y="-70" width="1190" height="850" as="geometry" />
        </mxCell>
        <mxCell id="2" value="" style="fillColor=#CC4125;strokeColor=#660000" parent="1" vertex="1">
          <mxGeometry x="200" y="150" width="10" height="300" as="geometry" />
        </mxCell>
        <mxCell id="3" value="Certificate&#xa;request" style="edgeStyle=none;verticalLabelPosition=top;verticalAlign=bottom;labelPosition=left;align=center;spacing=1;fontSize=9;dashed=1;exitX=0.978;exitY=0.086;exitDx=0;exitDy=0;exitPerimeter=0;entryX=0.144;entryY=0.042;entryDx=0;entryDy=0;entryPerimeter=0;" parent="1" edge="1" target="2" source="tpsU3pb73Hbp_vr3Kudf-130">
          <mxGeometry width="100" height="100" as="geometry">
            <mxPoint x="110" y="149.5" as="sourcePoint" />
            <mxPoint x="200" y="149.5" as="targetPoint" />
            <mxPoint as="offset" />
          </mxGeometry>
        </mxCell>
        <mxCell id="4" value="CMP http proxy" style="shadow=1;fillColor=#A2C4C9;strokeColor=none" parent="1" vertex="1">
          <mxGeometry x="152.5" y="60" width="105" height="50" as="geometry" />
        </mxCell>
        <mxCell id="6" value="" style="fillColor=#CC4125;strokeColor=#660000" parent="1" vertex="1">
          <mxGeometry x="342.5" y="180" width="10" height="230" as="geometry" />
        </mxCell>
        <mxCell id="7" value="AC RA Repository&#xa;service" style="shadow=1;fillColor=#A2C4C9;strokeColor=none" parent="1" vertex="1">
          <mxGeometry x="295" y="60" width="105" height="50" as="geometry" />
        </mxCell>
        <mxCell id="8" value="" style="edgeStyle=none;endArrow=none;dashed=1" parent="1" source="7" target="6" edge="1">
          <mxGeometry x="272.3350694444445" y="165" width="100" height="100" as="geometry">
            <mxPoint x="347.2588734567901" y="110" as="sourcePoint" />
            <mxPoint x="347.5761959876544" y="165" as="targetPoint" />
          </mxGeometry>
        </mxCell>
        <mxCell id="9" value="Certificate&#xa;request" style="edgeStyle=none;verticalLabelPosition=top;verticalAlign=bottom;fontSize=10;" parent="1" edge="1">
          <mxGeometry x="220" y="92" width="100" height="100" as="geometry">
            <mxPoint x="210" y="179.5" as="sourcePoint" />
            <mxPoint x="340" y="179.5" as="targetPoint" />
          </mxGeometry>
        </mxCell>
        <mxCell id="13" value="Certificate&#xa;request" style="edgeStyle=none;verticalLabelPosition=top;verticalAlign=bottom;" parent="1" edge="1">
          <mxGeometry x="385.45524691358025" y="113.91550925925924" width="100" height="100" as="geometry">
            <mxPoint x="352.5" y="201.20563271604937" as="sourcePoint" />
            <mxPoint x="680" y="201" as="targetPoint" />
          </mxGeometry>
        </mxCell>
        <mxCell id="21" value="" style="fillColor=#CC4125;strokeColor=#660000" parent="1" vertex="1">
          <mxGeometry x="670" y="160" width="10" height="189.39" as="geometry" />
        </mxCell>
        <mxCell id="22" value="PCS neo AC &#xa;Certificate Agent" style="shadow=1;fillColor=#A2C4C9;strokeColor=none" parent="1" vertex="1">
          <mxGeometry x="619.86" y="50" width="105" height="50" as="geometry" />
        </mxCell>
        <mxCell id="23" value="" style="edgeStyle=none;endArrow=none;dashed=1" parent="1" edge="1">
          <mxGeometry x="614.4878472222224" y="174.99999999999997" width="100" height="100" as="geometry">
            <mxPoint x="674.0415768249526" y="100" as="sourcePoint" />
            <mxPoint x="675.9494770800758" y="269.3942901234568" as="targetPoint" />
          </mxGeometry>
        </mxCell>
        <mxCell id="24" value="PCS neo CA/&#xa;MS CA" style="shadow=1;fillColor=#A2C4C9;strokeColor=none" parent="1" vertex="1">
          <mxGeometry x="750" y="80" width="100" height="30" as="geometry" />
        </mxCell>
        <mxCell id="25" value="" style="edgeStyle=none;endArrow=none;dashed=1" parent="1" source="24" target="26" edge="1">
          <mxGeometry x="727.3350694444446" y="165" width="100" height="100" as="geometry">
            <mxPoint x="802.2588734567901" y="110" as="sourcePoint" />
            <mxPoint x="802.5761959876544" y="165" as="targetPoint" />
          </mxGeometry>
        </mxCell>
        <mxCell id="26" value="" style="fillColor=#CC4125;strokeColor=#660000" parent="1" vertex="1">
          <mxGeometry x="797.5" y="210" width="10" height="119.39" as="geometry" />
        </mxCell>
        <mxCell id="33" value="" style="edgeStyle=elbowEdgeStyle;elbow=horizontal;endArrow=none;dashed=1" parent="1" source="4" target="2" edge="1">
          <mxGeometry x="230.00000000000003" y="310" width="100" height="100" as="geometry">
            <mxPoint x="230.00000000000003" y="410" as="sourcePoint" />
            <mxPoint x="330" y="310" as="targetPoint" />
          </mxGeometry>
        </mxCell>
        <mxCell id="34" value="Certificate &#xa;Response" style="edgeStyle=elbowEdgeStyle;elbow=vertical;verticalLabelPosition=top;verticalAlign=bottom" parent="1" edge="1">
          <mxGeometry x="550" y="261.7361111111111" width="100" height="100" as="geometry">
            <mxPoint x="797.4999999999999" y="291.1304012345679" as="sourcePoint" />
            <mxPoint x="680" y="291.1304012345679" as="targetPoint" />
            <Array as="points" />
          </mxGeometry>
        </mxCell>
        <mxCell id="52" value="" style="edgeStyle=none;endArrow=none;dashed=1" parent="1" source="tpsU3pb73Hbp_vr3Kudf-97" edge="1">
          <mxGeometry x="376.5711805555559" y="339.6971450617284" width="100" height="100" as="geometry">
            <mxPoint x="451.7361111111112" y="284.6971450617284" as="sourcePoint" />
            <mxPoint x="347.5" y="464.16666666666674" as="targetPoint" />
          </mxGeometry>
        </mxCell>
        <mxCell id="56" value="" style="edgeStyle=none;endArrow=none;dashed=1" parent="1" edge="1">
          <mxGeometry x="1204.0711805555559" y="380.08680555555554" width="100" height="100" as="geometry">
            <mxPoint x="1142.5" y="512.0833333333335" as="sourcePoint" />
            <mxPoint x="1142.5" y="530" as="targetPoint" />
          </mxGeometry>
        </mxCell>
        <mxCell id="71" value="CMP Certification - Issue of Device Certificate" style="rounded=1;fontStyle=1;fillColor=#FFD966;strokeColor=none" parent="1" vertex="1">
          <mxGeometry x="52.5" y="-10" width="290" height="30" as="geometry" />
        </mxCell>
        <mxCell id="86" value="" style="edgeStyle=elbowEdgeStyle;elbow=vertical;endArrow=none" parent="1" edge="1">
          <mxGeometry x="49.99999999999993" y="709.9884259259259" width="100" height="100" as="geometry">
            <mxPoint x="189.99999999999994" y="759.9884259259259" as="sourcePoint" />
            <mxPoint x="139.99999999999994" y="759.9884259259259" as="targetPoint" />
          </mxGeometry>
        </mxCell>
        <mxCell id="tpsU3pb73Hbp_vr3Kudf-94" value="CMP Server" style="shadow=1;fillColor=#A2C4C9;strokeColor=none;fontSize=10;" vertex="1" parent="1">
          <mxGeometry x="317.5" y="120" width="60" height="40" as="geometry" />
        </mxCell>
        <mxCell id="tpsU3pb73Hbp_vr3Kudf-95" value="Certificate&#xa;request" style="edgeStyle=none;verticalLabelPosition=top;verticalAlign=bottom;" edge="1" parent="1">
          <mxGeometry x="385.45524691358025" y="113.91550925925924" width="100" height="100" as="geometry">
            <mxPoint x="680" y="230" as="sourcePoint" />
            <mxPoint x="800" y="230" as="targetPoint" />
          </mxGeometry>
        </mxCell>
        <mxCell id="tpsU3pb73Hbp_vr3Kudf-96" value="Certificate &#xa;Response" style="edgeStyle=elbowEdgeStyle;elbow=vertical;verticalLabelPosition=top;verticalAlign=bottom" edge="1" parent="1" source="21">
          <mxGeometry x="550" y="261.7361111111111" width="100" height="100" as="geometry">
            <mxPoint x="469.9999999999999" y="330.0004012345679" as="sourcePoint" />
            <mxPoint x="352.5" y="330.0004012345679" as="targetPoint" />
            <Array as="points" />
          </mxGeometry>
        </mxCell>
        <mxCell id="tpsU3pb73Hbp_vr3Kudf-98" value="" style="edgeStyle=none;endArrow=none;dashed=1" edge="1" parent="1" source="6" target="tpsU3pb73Hbp_vr3Kudf-97">
          <mxGeometry x="376.5711805555559" y="339.6971450617284" width="100" height="100" as="geometry">
            <mxPoint x="348" y="350" as="sourcePoint" />
            <mxPoint x="347.5" y="464.16666666666674" as="targetPoint" />
          </mxGeometry>
        </mxCell>
        <mxCell id="tpsU3pb73Hbp_vr3Kudf-97" value="RA &#xa;Repositories" style="shadow=1;fillColor=#A2C4C9;strokeColor=none;fontSize=10;" vertex="1" parent="1">
          <mxGeometry x="317.5" y="460" width="60" height="40" as="geometry" />
        </mxCell>
        <mxCell id="tpsU3pb73Hbp_vr3Kudf-104" value="&lt;font style=&quot;font-size: 10px;&quot;&gt;Update RA repository with device&amp;nbsp;&lt;/font&gt;&lt;div&gt;&lt;font style=&quot;font-size: 10px;&quot;&gt;Certificate&lt;/font&gt;&lt;/div&gt;" style="shape=tapeData;whiteSpace=wrap;html=1;perimeter=ellipsePerimeter;direction=south;" vertex="1" parent="1">
          <mxGeometry x="377.5" y="380" width="80" height="80" as="geometry" />
        </mxCell>
        <mxCell id="tpsU3pb73Hbp_vr3Kudf-105" value="" style="edgeStyle=none;verticalLabelPosition=top;verticalAlign=bottom;endArrow=none;startArrow=classic;dashed=1;exitX=0.824;exitY=0.929;exitDx=0;exitDy=0;exitPerimeter=0;" edge="1" parent="1">
          <mxGeometry x="220" y="172.25887345679013" width="100" height="100" as="geometry">
            <mxPoint x="208.23999999999978" y="407.70000000000005" as="sourcePoint" />
            <mxPoint x="350" y="409" as="targetPoint" />
          </mxGeometry>
        </mxCell>
        <mxCell id="tpsU3pb73Hbp_vr3Kudf-121" value="Text" style="edgeLabel;html=1;align=center;verticalAlign=middle;resizable=0;points=[];" vertex="1" connectable="0" parent="tpsU3pb73Hbp_vr3Kudf-105">
          <mxGeometry relative="1" as="geometry">
            <mxPoint x="2" y="-2" as="offset" />
          </mxGeometry>
        </mxCell>
        <mxCell id="tpsU3pb73Hbp_vr3Kudf-126" value="&lt;span style=&quot;font-size: 10px;&quot;&gt;Certificate&lt;/span&gt;&lt;br style=&quot;padding: 0px; margin: 0px; font-size: 10px;&quot;&gt;&lt;span style=&quot;font-size: 10px;&quot;&gt;response&lt;/span&gt;" style="edgeLabel;html=1;align=center;verticalAlign=middle;resizable=0;points=[];" vertex="1" connectable="0" parent="tpsU3pb73Hbp_vr3Kudf-105">
          <mxGeometry relative="1" as="geometry">
            <mxPoint x="1" y="-3" as="offset" />
          </mxGeometry>
        </mxCell>
        <mxCell id="tpsU3pb73Hbp_vr3Kudf-108" value="PCS neo AC &#xa;registration &#xa;Authority" style="shadow=1;fillColor=#A2C4C9;strokeColor=none" vertex="1" parent="1">
          <mxGeometry x="550" y="500" width="105" height="50" as="geometry" />
        </mxCell>
        <mxCell id="tpsU3pb73Hbp_vr3Kudf-109" value="" style="fillColor=#CC4125;strokeColor=#660000" vertex="1" parent="1">
          <mxGeometry x="342.5" y="510" width="10" height="170" as="geometry" />
        </mxCell>
        <mxCell id="tpsU3pb73Hbp_vr3Kudf-110" value="" style="edgeStyle=none;endArrow=none;dashed=1" edge="1" parent="1">
          <mxGeometry x="272.3350694444445" y="165" width="100" height="100" as="geometry">
            <mxPoint x="514" y="560" as="sourcePoint" />
            <mxPoint x="514" y="630" as="targetPoint" />
          </mxGeometry>
        </mxCell>
        <mxCell id="tpsU3pb73Hbp_vr3Kudf-111" value="" style="fillColor=#CC4125;strokeColor=#660000" vertex="1" parent="1">
          <mxGeometry x="597.5" y="550" width="10" height="170" as="geometry" />
        </mxCell>
        <mxCell id="tpsU3pb73Hbp_vr3Kudf-112" value="Publish&#xa;Certificate issued &#xa;state ?" style="edgeStyle=none;verticalLabelPosition=top;verticalAlign=bottom;fontSize=10;entryX=0.685;entryY=0.201;entryDx=0;entryDy=0;entryPerimeter=0;fontColor=light-dark(#c31d1d, #ededed);" edge="1" parent="1">
          <mxGeometry x="220" y="92" width="100" height="100" as="geometry">
            <mxPoint x="352.5" y="585" as="sourcePoint" />
            <mxPoint x="604.3500000000004" y="589.1699999999998" as="targetPoint" />
          </mxGeometry>
        </mxCell>
        <mxCell id="tpsU3pb73Hbp_vr3Kudf-113" value="PCS neo AC &#xa;Communication &#xa;server" style="shadow=1;fillColor=#A2C4C9;strokeColor=none" vertex="1" parent="1">
          <mxGeometry x="702.5" y="500" width="105" height="50" as="geometry" />
        </mxCell>
        <mxCell id="tpsU3pb73Hbp_vr3Kudf-114" value="" style="fillColor=#CC4125;strokeColor=#660000" vertex="1" parent="1">
          <mxGeometry x="750" y="550" width="10" height="170" as="geometry" />
        </mxCell>
        <mxCell id="tpsU3pb73Hbp_vr3Kudf-115" value="Publish&#xa;Certificate issued &#xa;state" style="edgeStyle=none;verticalLabelPosition=top;verticalAlign=bottom;fontSize=10;entryX=0.685;entryY=0.201;entryDx=0;entryDy=0;entryPerimeter=0;" edge="1" parent="1">
          <mxGeometry x="220" y="92" width="100" height="100" as="geometry">
            <mxPoint x="610" y="609" as="sourcePoint" />
            <mxPoint x="750" y="609" as="targetPoint" />
          </mxGeometry>
        </mxCell>
        <mxCell id="tpsU3pb73Hbp_vr3Kudf-116" value="PCS neo AC &#xa;Web server" style="shadow=1;fillColor=#A2C4C9;strokeColor=none" vertex="1" parent="1">
          <mxGeometry x="840" y="500" width="105" height="50" as="geometry" />
        </mxCell>
        <mxCell id="tpsU3pb73Hbp_vr3Kudf-117" value="" style="fillColor=#CC4125;strokeColor=#660000" vertex="1" parent="1">
          <mxGeometry x="900" y="550" width="10" height="170" as="geometry" />
        </mxCell>
        <mxCell id="tpsU3pb73Hbp_vr3Kudf-118" value="Publish&#xa;Certificate issued &#xa;state" style="edgeStyle=none;verticalLabelPosition=top;verticalAlign=bottom;fontSize=10;entryX=0.685;entryY=0.201;entryDx=0;entryDy=0;entryPerimeter=0;" edge="1" parent="1">
          <mxGeometry x="220" y="92" width="100" height="100" as="geometry">
            <mxPoint x="760" y="637" as="sourcePoint" />
            <mxPoint x="900" y="637" as="targetPoint" />
          </mxGeometry>
        </mxCell>
        <mxCell id="tpsU3pb73Hbp_vr3Kudf-119" value="&lt;span style=&quot;white-space: pre-wrap; background-color: rgb(240, 240, 240);&quot;&gt;&lt;font face=&quot;Verdana&quot; style=&quot;font-size: 10px;&quot;&gt;RA Configuration &lt;/font&gt;&lt;/span&gt;&lt;div&gt;&lt;span style=&quot;white-space: pre-wrap; background-color: rgb(240, 240, 240);&quot;&gt;&lt;font face=&quot;Verdana&quot; style=&quot;font-size: 10px;&quot;&gt;&amp;amp; History Repository&lt;/font&gt;&lt;/span&gt;&lt;/div&gt;" style="image;html=1;image=img/lib/clip_art/computers/Database_128x128.png" vertex="1" parent="1">
          <mxGeometry x="165" y="500" width="65" height="70" as="geometry" />
        </mxCell>
        <mxCell id="tpsU3pb73Hbp_vr3Kudf-120" value="Request log&#xa;Issued certificate" style="edgeStyle=elbowEdgeStyle;elbow=vertical;verticalLabelPosition=top;verticalAlign=bottom;exitX=0.339;exitY=0.192;exitDx=0;exitDy=0;exitPerimeter=0;" edge="1" parent="1" source="tpsU3pb73Hbp_vr3Kudf-109" target="tpsU3pb73Hbp_vr3Kudf-119">
          <mxGeometry x="550" y="261.7361111111111" width="100" height="100" as="geometry">
            <mxPoint x="587.5" y="544.44" as="sourcePoint" />
            <mxPoint x="270" y="544.4404012345678" as="targetPoint" />
            <Array as="points" />
          </mxGeometry>
        </mxCell>
        <mxCell id="tpsU3pb73Hbp_vr3Kudf-122" value="PCS neo AC &#xa;User Interface" style="shadow=1;fillColor=#A2C4C9;strokeColor=none" vertex="1" parent="1">
          <mxGeometry x="980" y="500" width="105" height="50" as="geometry" />
        </mxCell>
        <mxCell id="tpsU3pb73Hbp_vr3Kudf-123" value="" style="fillColor=#CC4125;strokeColor=#660000" vertex="1" parent="1">
          <mxGeometry x="1027.5" y="550" width="10" height="170" as="geometry" />
        </mxCell>
        <mxCell id="tpsU3pb73Hbp_vr3Kudf-124" value="Update Device&#xa;Certificate &#xa;Overview&#xa;" style="edgeStyle=none;verticalLabelPosition=top;verticalAlign=bottom;fontSize=10;entryX=0.685;entryY=0.201;entryDx=0;entryDy=0;entryPerimeter=0;" edge="1" parent="1">
          <mxGeometry width="100" height="100" as="geometry">
            <mxPoint x="910" y="665" as="sourcePoint" />
            <mxPoint x="1027.5" y="665" as="targetPoint" />
            <mxPoint x="1" as="offset" />
          </mxGeometry>
        </mxCell>
        <mxCell id="tpsU3pb73Hbp_vr3Kudf-127" value="" style="edgeStyle=none;verticalLabelPosition=top;verticalAlign=bottom;endArrow=none;startArrow=classic;dashed=1;exitX=0.978;exitY=0.96;exitDx=0;exitDy=0;exitPerimeter=0;entryX=0.5;entryY=1;entryDx=0;entryDy=0;" edge="1" parent="1" source="tpsU3pb73Hbp_vr3Kudf-130" target="2">
          <mxGeometry x="220" y="172.25887345679013" width="100" height="100" as="geometry">
            <mxPoint x="68" y="264.5" as="sourcePoint" />
            <mxPoint x="210" y="265.5" as="targetPoint" />
          </mxGeometry>
        </mxCell>
        <mxCell id="tpsU3pb73Hbp_vr3Kudf-128" value="Text" style="edgeLabel;html=1;align=center;verticalAlign=middle;resizable=0;points=[];" vertex="1" connectable="0" parent="tpsU3pb73Hbp_vr3Kudf-127">
          <mxGeometry relative="1" as="geometry">
            <mxPoint x="2" y="-2" as="offset" />
          </mxGeometry>
        </mxCell>
        <mxCell id="tpsU3pb73Hbp_vr3Kudf-129" value="&lt;span style=&quot;font-size: 10px;&quot;&gt;Certificate&lt;/span&gt;&lt;br style=&quot;padding: 0px; margin: 0px; font-size: 10px;&quot;&gt;&lt;span style=&quot;font-size: 10px;&quot;&gt;response&lt;/span&gt;" style="edgeLabel;html=1;align=center;verticalAlign=middle;resizable=0;points=[];" vertex="1" connectable="0" parent="tpsU3pb73Hbp_vr3Kudf-127">
          <mxGeometry relative="1" as="geometry">
            <mxPoint x="1" y="-3" as="offset" />
          </mxGeometry>
        </mxCell>
        <mxCell id="tpsU3pb73Hbp_vr3Kudf-130" value="" style="fillColor=#CC4125;strokeColor=#660000" vertex="1" parent="1">
          <mxGeometry x="55" y="137" width="10" height="330" as="geometry" />
        </mxCell>
        <mxCell id="tpsU3pb73Hbp_vr3Kudf-131" value="CMP Client" style="shadow=1;fillColor=#A2C4C9;strokeColor=none" vertex="1" parent="1">
          <mxGeometry y="70" width="105" height="50" as="geometry" />
        </mxCell>
        <mxCell id="tpsU3pb73Hbp_vr3Kudf-132" value="" style="elbow=horizontal;endArrow=none;dashed=1;rounded=0;" edge="1" parent="1">
          <mxGeometry x="230.00000000000003" y="310" width="100" height="100" as="geometry">
            <mxPoint x="59" y="120" as="sourcePoint" />
            <mxPoint x="59" y="440" as="targetPoint" />
          </mxGeometry>
        </mxCell>
      </root>
    </mxGraphModel>
  </diagram>
</mxfile>
